<?xml version="1.0" standalone="no"?>
<!DOCTYPE svg PUBLIC "-//W3C//DTD SVG 20010904//EN"
 "http://www.w3.org/TR/2001/REC-SVG-20010904/DTD/svg10.dtd">
<svg version="1.0" xmlns="http://www.w3.org/2000/svg"
 width="256.000000pt" height="256.000000pt" viewBox="0 0 256.000000 256.000000"
 preserveAspectRatio="xMidYMid meet">

<g transform="translate(0.000000,256.000000) scale(0.100000,-0.100000)"
fill="#000000" stroke="none">
<path d="M0 1280 l0 -1280 1280 0 1280 0 0 1280 0 1280 -1280 0 -1280 0 0
-1280z m1180 1120 c0 -5 -4 -10 -10 -10 -5 0 -10 5 -10 10 0 6 5 10 10 10 6 0
10 -4 10 -10z m210 -5 c0 -8 -4 -15 -10 -15 -5 0 -10 7 -10 15 0 8 5 15 10 15
6 0 10 -7 10 -15z m-79 -106 c26 -96 35 -106 65 -78 12 11 36 47 54 80 17 32
33 59 36 59 3 0 5 -24 4 -52 -1 -29 -1 -70 -1 -91 1 -35 2 -37 17 -22 23 23
48 15 52 -18 4 -33 10 -33 57 -6 20 12 38 20 40 17 2 -2 0 -20 -4 -41 -8 -34
-7 -37 13 -37 12 0 55 16 95 35 41 20 75 34 77 33 1 -2 -20 -30 -47 -63 -27
-33 -49 -64 -49 -68 0 -12 47 -4 135 22 l70 20 -40 -32 c-60 -48 -105 -99
-105 -119 0 -15 9 -18 63 -18 34 0 80 5 102 10 22 5 41 7 43 6 2 -2 -33 -26
-77 -52 -44 -27 -81 -52 -81 -56 0 -4 10 -8 23 -10 14 -2 23 -11 25 -26 2 -13
14 -28 28 -34 30 -14 18 -32 -33 -49 -33 -11 -34 -12 -15 -25 11 -8 57 -23
102 -33 45 -11 85 -22 87 -25 3 -2 -22 -7 -54 -11 -32 -3 -83 -11 -114 -16
-50 -10 -57 -14 -55 -34 4 -32 12 -42 69 -81 l52 -35 -87 7 c-66 5 -88 4 -88
-5 0 -7 4 -10 9 -7 5 4 11 3 13 -1 1 -5 17 -15 33 -24 17 -10 40 -31 52 -48
13 -20 23 -27 26 -19 3 8 6 6 6 -4 1 -10 5 -18 11 -18 5 0 9 -6 7 -12 -1 -7 4
-12 11 -11 6 2 12 -1 12 -6 0 -5 9 -13 20 -16 11 -4 18 -10 16 -14 -3 -4 11
-8 30 -8 46 -1 80 -25 102 -71 10 -20 24 -36 30 -35 7 2 12 -2 12 -7 0 -6 10
-10 23 -10 18 0 19 -2 7 -10 -8 -5 -10 -10 -4 -10 13 0 31 -39 44 -92 4 -18
11 -42 16 -52 5 -13 4 -17 -3 -13 -7 4 -9 -8 -6 -37 6 -47 -15 -99 -45 -114
-9 -5 -41 -12 -71 -16 -30 -4 -76 -18 -104 -32 -54 -28 -52 -28 -82 28 -8 15
-15 35 -15 44 0 18 47 104 56 104 3 0 17 -9 31 -20 37 -29 94 -26 131 5 17 14
33 25 37 25 3 0 5 -19 3 -42 l-3 -43 -45 2 c-25 1 -61 -2 -80 -7 -45 -13 -94
-56 -86 -76 4 -12 14 -9 47 16 36 26 51 30 105 30 57 0 65 3 80 25 12 18 14
37 10 67 -3 24 -7 66 -9 95 -3 59 -22 86 -73 105 -29 10 -34 17 -34 43 0 32
-19 56 -54 69 -27 9 -66 -19 -66 -49 0 -14 -3 -25 -6 -25 -22 0 -152 44 -165
56 -22 20 -31 17 -27 -8 3 -19 20 -28 115 -58 61 -19 115 -38 118 -42 4 -4 0
-17 -9 -30 -9 -12 -16 -30 -16 -40 0 -10 -20 -50 -45 -90 -48 -78 -54 -108
-30 -164 12 -30 12 -35 1 -31 -8 3 -35 -15 -62 -41 -27 -26 -71 -62 -98 -79
-59 -39 -76 -40 -266 -17 l-136 17 -79 -44 c-79 -43 -82 -44 -175 -44 -85 0
-101 3 -150 28 -30 16 -72 45 -92 65 -21 19 -43 37 -50 37 -7 1 -44 5 -82 9
-76 8 -95 15 -143 57 -34 30 -117 59 -166 59 -18 0 -39 10 -58 29 -28 28 -29
33 -29 119 0 82 2 92 29 129 33 45 86 87 100 79 5 -3 8 2 7 12 -1 13 5 16 26
14 14 -2 29 2 34 9 4 8 3 9 -4 5 -7 -4 -12 -2 -12 3 0 6 6 11 13 11 16 0 47
36 47 54 0 29 80 130 117 149 64 31 146 40 258 27 55 -7 101 -13 103 -15 2 -2
-8 -16 -22 -32 l-26 -29 -135 14 c-74 8 -146 11 -160 8 -14 -4 -43 -29 -65
-57 l-40 -51 0 -250 c0 -156 4 -257 11 -269 5 -11 22 -25 37 -30 31 -12 154
-28 149 -20 -40 72 -50 112 -51 186 0 62 5 92 23 132 27 60 122 156 149 151 9
-2 45 16 80 39 57 38 82 51 82 39 0 -10 -111 -86 -134 -92 -40 -10 -121 -88
-148 -142 -35 -72 -32 -187 7 -265 53 -106 151 -174 266 -184 74 -7 139 9 213
55 l59 36 141 -17 c219 -26 217 -27 325 63 l61 51 0 189 c0 105 -3 190 -7 190
-5 0 -7 -73 -5 -162 1 -90 0 -173 -3 -185 -3 -11 -36 -44 -74 -72 -78 -58 -80
-58 -253 -39 -111 12 -145 28 -59 28 42 0 51 4 66 27 16 24 19 25 30 10 16
-22 27 -10 14 14 -7 15 -7 19 3 17 7 -2 12 3 10 10 -1 8 2 11 9 6 9 -5 10 -2
6 9 -4 11 -2 14 9 10 8 -3 14 1 14 9 0 8 13 27 29 42 l29 28 5 -23 c2 -13 5
12 6 55 1 69 -2 83 -21 103 -12 13 -32 23 -45 23 -13 0 -23 6 -23 14 0 8 -3
21 -6 29 -4 11 2 17 18 20 21 4 20 4 -4 6 -34 1 -39 31 -5 31 17 0 19 2 8 9
-8 5 -20 7 -28 4 -17 -6 -17 11 0 25 7 5 21 6 32 1 11 -4 39 -8 62 -8 l43 -1
2 -236 3 -237 53 42 52 41 0 178 0 178 -35 13 c-39 14 -56 51 -35 76 16 19 29
19 52 -2 17 -15 18 -14 18 35 0 29 -2 52 -5 52 -2 0 -29 -15 -58 -34 -40 -26
-53 -40 -52 -58 0 -33 -19 -38 -23 -5 -3 25 -7 27 -47 27 -45 0 -69 8 -120 38
-30 19 -40 52 -17 60 7 2 12 -5 12 -16 0 -31 24 -43 104 -54 71 -10 76 -10
119 15 24 14 50 33 57 42 11 14 10 17 -8 22 -12 3 -22 12 -22 19 0 12 5 12 29
-1 40 -20 44 -30 47 -98 4 -84 14 -84 14 0 0 53 -4 76 -17 91 -26 29 -177 75
-224 67 -34 -6 -39 -3 -75 41 -49 59 -78 71 -204 85 -96 11 -103 11 -128 -8
-15 -11 -42 -24 -59 -27 -18 -4 -47 -24 -67 -46 l-35 -39 -68 11 c-91 14 -269
5 -308 -16 -16 -9 -36 -16 -42 -16 -7 0 -13 -7 -13 -15 0 -8 -4 -15 -10 -15
-24 0 -8 40 21 56 49 25 130 109 123 127 -9 23 -30 29 -133 35 l-94 5 97 38
c54 21 100 40 103 43 22 22 -44 70 -151 107 -39 14 -38 14 69 19 70 3 110 9
112 17 2 6 -12 26 -31 44 -52 47 -48 59 24 59 41 0 60 4 60 13 0 6 -34 44 -76
83 l-75 71 86 -28 c103 -33 155 -43 155 -29 0 14 -32 73 -75 138 -38 57 -36
57 35 7 59 -43 122 -73 138 -68 17 6 15 45 -7 133 -11 41 -18 76 -17 77 1 1
31 -34 66 -77 35 -44 66 -80 68 -80 2 0 3 40 0 89 -2 50 -1 88 3 85 4 -2 21
-28 38 -57 17 -29 39 -61 50 -71 32 -29 39 -19 72 113 5 23 12 41 15 38 2 -2
14 -37 25 -78z m-111 41 c0 -5 -7 -10 -15 -10 -8 0 -15 5 -15 10 0 6 7 10 15
10 8 0 15 -4 15 -10z m-320 -10 c0 -5 -4 -10 -10 -10 -5 0 -10 5 -10 10 0 6 5
10 10 10 6 0 10 -4 10 -10z m510 0 c0 -5 -4 -10 -10 -10 -5 0 -10 5 -10 10 0
6 5 10 10 10 6 0 10 -4 10 -10z m184 -31 c-3 -5 -10 -7 -15 -3 -5 3 -7 10 -3
15 3 5 10 7 15 3 5 -3 7 -10 3 -15z m-643 -52 c-1 -12 -15 -9 -19 4 -3 6 1 10
8 8 6 -3 11 -8 11 -12z m849 -16 c0 -6 -4 -13 -10 -16 -5 -3 -10 1 -10 9 0 9
5 16 10 16 6 0 10 -4 10 -9z m-1090 -31 c0 -5 -4 -10 -10 -10 -5 0 -10 5 -10
10 0 6 5 10 10 10 6 0 10 -4 10 -10z m54 -51 c-3 -5 -10 -7 -15 -3 -5 3 -7 10
-3 15 3 5 10 7 15 3 5 -3 7 -10 3 -15z m-179 -214 l-20 -21 -21 21 c-20 20
-20 20 -1 41 l18 22 22 -22 22 -21 -20 -20z m1395 55 c0 -5 -5 -10 -11 -10 -5
0 -7 5 -4 10 3 6 8 10 11 10 2 0 4 -4 4 -10z m-1515 -59 c7 -12 -12 -24 -25
-16 -11 7 -4 25 10 25 5 0 11 -4 15 -9z m1723 -42 c-2 -6 -8 -10 -13 -10 -5 0
-11 4 -13 10 -2 6 4 11 13 11 9 0 15 -5 13 -11z m-98 -45 c0 -8 -7 -14 -15
-14 -15 0 -21 21 -9 33 10 9 24 -2 24 -19z m-1730 -14 c0 -5 -5 -10 -11 -10
-5 0 -7 5 -4 10 3 6 8 10 11 10 2 0 4 -4 4 -10z m1829 -46 c-9 -11 -15 -12
-25 -3 -11 9 -12 15 -3 25 9 11 15 12 25 3 11 -9 12 -15 3 -25z m-1749 -39 c5
-14 21 -30 35 -37 l25 -11 -30 -18 c-16 -10 -30 -26 -30 -34 0 -22 -18 -18
-25 5 -4 11 -18 26 -33 34 l-27 14 28 13 c15 7 30 23 33 36 8 29 12 29 24 -2z
m1676 -16 c11 -19 -13 -34 -31 -19 -13 11 -13 15 -3 21 18 12 26 11 34 -2z
m-1546 -9 c0 -5 -4 -10 -10 -10 -5 0 -10 5 -10 10 0 6 5 10 10 10 6 0 10 -4
10 -10z m1655 -79 c-12 -12 -17 -12 -30 -1 -14 11 -14 14 2 25 24 18 48 -3 28
-24z m-1925 -1 c0 -5 -5 -10 -11 -10 -5 0 -7 5 -4 10 3 6 8 10 11 10 2 0 4 -4
4 -10z m2020 -10 c0 -5 -4 -10 -10 -10 -5 0 -10 5 -10 10 0 6 5 10 10 10 6 0
10 -4 10 -10z m-1825 -81 c9 -17 30 -43 47 -58 23 -20 31 -38 35 -74 5 -44 3
-49 -34 -86 -44 -44 -99 -61 -139 -42 -23 10 -24 13 -10 26 8 8 36 18 61 22
49 6 75 30 75 68 0 11 -13 52 -30 90 l-29 70 -1 -62 c0 -55 -4 -66 -30 -97
-40 -45 -85 -54 -145 -27 -53 24 -58 21 -11 -7 23 -13 36 -31 41 -51 3 -17 18
-40 32 -51 14 -11 24 -23 21 -26 -9 -8 -68 46 -68 63 0 8 -18 32 -41 52 -31
29 -37 40 -27 48 19 15 78 24 78 13 0 -6 -5 -10 -11 -10 -5 0 -7 -4 -4 -10 10
-17 61 -11 88 10 23 18 57 94 57 127 0 20 -17 16 -42 -9 -30 -30 -88 -69 -88
-60 0 28 110 112 147 112 7 0 20 -14 28 -31z m1700 4 c33 -17 75 -52 75 -64 0
-4 -13 -2 -30 4 -16 6 -30 16 -30 23 0 12 -49 38 -57 30 -3 -2 2 -29 11 -60
19 -63 53 -96 100 -96 28 1 29 2 14 14 -27 20 -22 22 29 16 59 -6 68 -30 24
-56 -17 -10 -35 -31 -41 -48 -11 -32 -38 -66 -52 -66 -5 0 0 11 11 25 11 14
23 39 26 55 4 17 10 30 14 30 4 0 16 7 27 15 16 13 13 12 -20 -1 -54 -22 -97
-12 -135 32 -27 30 -31 42 -32 97 0 53 -2 59 -11 37 -6 -14 -19 -43 -29 -66
-38 -83 -18 -128 62 -137 58 -7 78 -25 52 -44 -35 -27 -109 -7 -153 42 -20 21
-25 37 -25 75 0 43 5 54 38 87 20 22 37 43 37 49 0 19 24 34 45 28 11 -4 34
-13 50 -21z m-1600 7 c3 -5 1 -10 -4 -10 -6 0 -11 5 -11 10 0 6 2 10 4 10 3 0
8 -4 11 -10z m1430 1 c3 -5 1 -12 -5 -16 -5 -3 -10 1 -10 9 0 18 6 21 15 7z
m-725 -12 c0 -6 8 -8 19 -4 24 7 73 -4 65 -16 -8 -14 -82 -11 -87 4 -4 10 -7
10 -18 0 -7 -7 -22 -13 -33 -13 -18 0 -19 1 -1 20 19 21 55 27 55 9z m130 -29
c-25 -19 -50 -26 -50 -14 0 12 35 33 55 33 18 1 18 -1 -5 -19z m101 -38 c64
-73 68 -79 56 -91 -17 -17 4 -32 58 -42 53 -10 111 11 101 37 -3 8 1 14 9 14
10 0 15 -11 15 -35 0 -43 -21 -56 -98 -57 -80 -1 -112 14 -112 51 0 16 5 33
11 37 7 4 -7 25 -37 55 l-47 48 -29 -17 c-46 -27 -44 -45 16 -150 30 -53 58
-105 62 -114 13 -36 -6 -16 -49 50 l-44 68 -179 18 -178 18 -23 -28 c-13 -16
-28 -44 -34 -61 -12 -38 -29 -43 -29 -9 0 21 -6 24 -52 29 -43 5 -54 3 -64
-12 -22 -31 -88 -51 -176 -52 -78 -2 -81 -3 -53 -15 41 -18 131 -17 194 2 55
16 137 11 125 -8 -4 -5 -21 -7 -40 -3 -20 3 -52 0 -79 -10 -61 -20 -183 -20
-213 1 -17 12 -21 21 -16 42 9 38 53 94 69 88 7 -2 21 2 32 9 25 20 63 19 63
-1 0 -12 -7 -15 -30 -12 -31 5 -41 -6 -15 -16 19 -7 62 9 67 25 3 9 7 10 11 2
11 -18 -26 -48 -62 -52 -26 -2 -39 2 -51 19 -14 18 -18 20 -23 7 -19 -50 95
-73 151 -30 15 12 26 27 24 33 -2 10 17 11 76 8 l79 -5 36 56 c21 31 50 71 66
90 32 39 35 39 198 21 98 -11 104 -11 130 9 38 28 46 27 84 -17z m-891 3 c0
-8 -4 -15 -10 -15 -5 0 -10 7 -10 15 0 8 5 15 10 15 6 0 10 -7 10 -15z m1080
-75 c13 -9 13 -11 0 -20 -33 -22 -121 -6 -106 19 9 14 86 14 106 1z m-375
-117 c99 -29 185 -102 220 -187 9 -21 14 -63 14 -103 l-2 -68 -7 67 c-14 119
-81 208 -196 260 -36 16 -77 23 -154 28 -64 4 -95 9 -80 13 64 17 126 14 205
-10z m-155 -33 c0 -5 -6 -10 -14 -10 -7 0 -34 -16 -60 -36 -26 -20 -55 -34
-67 -32 -16 2 -10 11 33 45 50 40 108 57 108 33z m178 -58 c58 -38 88 -73 119
-137 42 -85 37 -108 -33 -145 -22 -12 -27 -12 -34 0 -17 26 -11 38 32 69 31
23 37 31 22 31 -10 0 -30 -9 -44 -20 -32 -25 -35 -25 -48 5 -11 23 -8 27 29
54 51 37 33 51 -21 15 l-40 -27 -20 24 -20 24 37 31 c47 41 28 52 -23 14 -45
-34 -43 -34 -68 -15 -19 14 -18 16 20 49 49 44 24 49 -28 6 -23 -19 -42 -28
-53 -23 -14 5 -11 12 21 39 28 23 34 33 22 34 -10 0 -33 -14 -52 -31 -32 -28
-67 -36 -67 -16 0 4 22 25 48 46 l48 38 50 -14 c28 -8 74 -31 103 -51z m227
28 c3 -5 -1 -10 -10 -10 -9 0 -13 5 -10 10 3 6 8 10 10 10 2 0 7 -4 10 -10z
m701 -17 c-10 -10 -19 5 -10 18 6 11 8 11 12 0 2 -7 1 -15 -2 -18z m-1990 -10
c-10 -10 -19 5 -10 18 6 11 8 11 12 0 2 -7 1 -15 -2 -18z m1764 -14 c16 -29 9
-64 -14 -64 -24 0 -61 48 -53 69 9 23 54 20 67 -5z m-1395 -218 c0 -98 3 -177
7 -175 3 2 9 0 13 -6 3 -5 22 -10 41 -10 19 0 34 -4 34 -10 0 -13 -96 -13
-121 0 -18 10 -19 23 -19 211 l0 199 23 -14 c21 -15 22 -19 22 -195z m492 159
c153 -67 224 -259 148 -398 -51 -94 -129 -136 -240 -130 -82 4 -129 25 -185
79 -67 65 -85 110 -85 214 0 76 4 96 22 126 79 126 207 167 340 109z m977 -44
c66 -28 70 -118 5 -151 -36 -19 -54 -19 -90 2 -64 38 -52 129 21 156 23 8 28
8 64 -7z m-478 -89 c10 -42 0 -102 -17 -105 -13 -2 -16 3 -13 25 4 24 3 25 -5
8 -7 -15 -10 -6 -10 38 -1 50 1 57 19 57 12 0 22 -9 26 -23z m-1365 -181 c31
-27 100 -51 169 -60 54 -8 102 -35 126 -71 15 -23 15 -28 2 -41 -11 -11 -21
-13 -42 -5 -21 9 -26 16 -24 38 2 22 -2 29 -25 37 -49 18 -78 -8 -108 -94 -25
-73 -26 -75 -61 -78 -27 -2 -45 4 -78 30 -24 18 -50 43 -58 55 -13 21 -13 23
4 29 38 12 95 38 99 45 3 4 -6 31 -20 61 -38 81 -34 95 16 54z m2024 -15 c-7
-21 -21 -53 -30 -70 l-16 -32 62 -28 61 -28 -32 -37 c-39 -44 -78 -66 -118
-66 -33 0 -50 26 -71 108 -15 55 -49 78 -94 65 -27 -8 -32 -13 -29 -36 4 -36
-40 -60 -65 -34 -15 15 -15 18 1 42 25 37 71 63 130 70 73 9 115 24 161 56 22
15 43 28 47 29 4 0 1 -17 -7 -39z m-370 -98 c-31 -22 -54 -16 -25 6 13 11 29
17 34 14 5 -3 1 -12 -9 -20z m-1455 -23 c0 -5 -7 -10 -15 -10 -20 0 -19 -13 3
-33 39 -35 291 -113 460 -142 263 -45 588 -34 837 30 123 32 286 88 310 107
28 22 32 38 10 38 -8 0 -15 5 -15 11 0 20 35 4 47 -21 16 -34 53 -219 47 -235
-13 -33 -180 -100 -368 -146 -401 -98 -899 -70 -1264 71 -113 44 -148 69 -144
106 6 69 44 210 60 222 19 15 32 16 32 2z"/>
<path d="M1165 2052 c-112 -39 -182 -99 -236 -202 -20 -39 -24 -59 -24 -145 0
-93 2 -105 33 -167 29 -60 35 -66 67 -70 29 -3 40 1 67 29 17 18 48 38 67 44
20 7 49 21 65 32 27 19 35 20 137 9 122 -13 160 -27 206 -80 37 -42 39 -41 80
38 25 50 28 64 28 160 0 95 -3 110 -27 157 -36 68 -78 114 -136 151 -95 61
-227 78 -327 44z m-105 -89 c0 -5 -17 -24 -36 -43 -35 -34 -94 -140 -94 -170
0 -8 -5 -22 -11 -30 -19 -27 1 80 24 129 29 63 118 149 117 114z"/>
<path d="M765 1400 c28 -12 73 -12 80 0 4 6 -14 10 -47 9 -39 0 -48 -3 -33 -9z"/>
<path d="M866 1401 c-6 -9 49 -21 97 -21 44 0 31 17 -19 24 -61 8 -72 8 -78
-3z"/>
<path d="M1683 1090 c0 -41 2 -58 4 -37 2 20 2 54 0 75 -2 20 -4 3 -4 -38z"/>
<path d="M1638 1143 c7 -3 16 -2 19 1 4 3 -2 6 -13 5 -11 0 -14 -3 -6 -6z"/>
<path d="M1603 1123 c9 -2 25 -2 35 0 9 3 1 5 -18 5 -19 0 -27 -2 -17 -5z"/>
<path d="M420 1097 c-41 -21 -69 -72 -70 -130 -3 -137 4 -147 95 -147 49 0 68
-5 90 -21 l27 -22 -4 24 c-5 36 -61 61 -120 53 -45 -5 -48 -4 -58 21 -15 39
-3 72 28 78 15 3 44 22 65 43 46 45 51 89 11 104 -32 12 -34 12 -64 -3z m47
-24 c2 -5 -5 -21 -16 -34 -17 -19 -22 -21 -30 -10 -7 11 -12 8 -26 -13 -14
-21 -15 -29 -5 -41 7 -8 8 -15 2 -15 -18 0 -34 29 -27 49 16 52 91 99 102 64z"/>
<path d="M1636 1094 c-8 -20 -8 -24 2 -24 4 0 8 9 9 20 2 24 -3 26 -11 4z"/>
<path d="M1610 1060 c0 -5 10 -10 23 -10 18 0 19 2 7 10 -19 13 -30 13 -30 0z"/>
<path d="M1595 770 c-10 -11 -15 -23 -10 -28 4 -4 10 -1 12 6 3 6 14 13 26 13
17 1 18 2 4 6 -9 2 -15 9 -12 14 10 16 -1 10 -20 -11z"/>
<path d="M1536 732 c-3 -6 -1 -14 5 -17 14 -9 20 -2 10 14 -6 8 -11 9 -15 3z"/>
<path d="M1576 715 c-3 -8 -18 -15 -33 -16 -15 0 -22 -3 -15 -6 20 -8 59 5 66
22 3 8 1 15 -3 15 -5 0 -11 -7 -15 -15z"/>
<path d="M1648 683 c7 -3 16 -2 19 1 4 3 -2 6 -13 5 -11 0 -14 -3 -6 -6z"/>
<path d="M1129 1443 c-13 -16 -12 -17 4 -4 9 7 17 15 17 17 0 8 -8 3 -21 -13z"/>
<path d="M1198 1453 c7 -3 16 -2 19 1 4 3 -2 6 -13 5 -11 0 -14 -3 -6 -6z"/>
<path d="M1293 1443 c9 -2 23 -2 30 0 6 3 -1 5 -18 5 -16 0 -22 -2 -12 -5z"/>
<path d="M1099 1403 c-13 -16 -12 -17 4 -4 9 7 17 15 17 17 0 8 -8 3 -21 -13z"/>
<path d="M1128 1383 c7 -3 16 -2 19 1 4 3 -2 6 -13 5 -11 0 -14 -3 -6 -6z"/>
<path d="M1218 1373 c6 -2 18 -2 25 0 6 3 1 5 -13 5 -14 0 -19 -2 -12 -5z"/>
<path d="M1328 1363 c7 -3 16 -2 19 1 4 3 -2 6 -13 5 -11 0 -14 -3 -6 -6z"/>
<path d="M985 1111 c-111 -28 -175 -113 -175 -231 0 -147 110 -260 253 -261
225 -2 319 270 147 425 -23 21 -56 44 -74 51 -42 18 -114 25 -151 16z m172
-57 c87 -51 138 -163 114 -252 -14 -51 -64 -110 -108 -128 -98 -42 -235 19
-278 123 -25 59 -17 70 11 15 28 -56 67 -92 127 -117 136 -57 267 66 227 211
-17 59 -78 129 -135 155 -24 11 -32 19 -21 19 11 0 39 -12 63 -26z m-82 5
c166 -45 228 -251 103 -341 -38 -27 -104 -31 -155 -9 -45 19 -41 27 11 23 37
-3 48 1 77 27 l34 31 -33 -16 c-20 -10 -43 -13 -62 -9 -38 8 -50 26 -13 19 18
-3 39 2 61 15 28 18 32 26 32 65 0 36 -5 48 -26 65 -36 28 -60 26 -95 -8 -30
-31 -40 -20 -18 21 8 15 8 19 0 14 -6 -4 -20 -24 -31 -44 l-19 -37 -1 30 c0
17 9 46 20 65 l21 35 -31 -33 c-16 -18 -30 -26 -30 -19 0 28 42 67 88 81 38
12 42 15 19 15 -15 1 -44 -6 -64 -14 -32 -13 -34 -13 -23 0 11 13 57 32 85 34
6 1 28 -4 50 -10z m-162 -339 c36 -35 103 -70 135 -70 12 0 22 -5 22 -11 0
-11 -42 -5 -87 12 -55 20 -143 126 -143 171 0 7 9 -6 21 -29 11 -23 35 -56 52
-73z"/>
<path d="M1125 940 c10 -11 20 -20 23 -20 3 0 -3 9 -13 20 -10 11 -20 20 -23
20 -3 0 3 -9 13 -20z"/>
<path d="M2052 1028 c-21 -21 -14 -57 14 -70 31 -14 57 -1 62 31 7 42 -46 69
-76 39z"/>
<path d="M2053 523 c7 -30 -10 -40 -29 -17 -17 21 -17 22 8 -48 12 -35 27 -37
20 -3 -5 30 14 34 23 5 4 -11 10 -18 15 -15 5 3 1 23 -9 45 -21 47 -36 65 -28
33z"/>
<path d="M480 506 c0 -14 5 -28 10 -31 6 -3 10 -10 10 -16 0 -14 -28 -11 -33
4 -4 7 -6 6 -6 -4 -1 -23 29 -33 47 -15 13 13 13 18 -1 40 -13 18 -14 27 -5
32 7 4 14 2 16 -4 2 -7 8 -12 13 -12 4 0 6 7 3 15 -4 8 -17 15 -30 15 -19 0
-24 -5 -24 -24z"/>
<path d="M1951 497 c-12 -15 -2 -57 21 -84 13 -17 48 1 48 25 -1 15 -2 15 -15
-2 -16 -21 -17 -21 -34 11 -16 31 -14 46 5 39 10 -4 14 -1 12 6 -6 18 -24 20
-37 5z"/>
<path d="M543 465 c-15 -32 -15 -37 -2 -51 22 -21 46 -8 59 32 13 39 7 54 -21
54 -12 0 -25 -13 -36 -35z m47 9 c0 -21 -18 -54 -30 -54 -13 0 -13 26 0 51 13
23 30 25 30 3z"/>
<path d="M618 441 c-16 -52 -16 -52 5 -60 27 -11 38 -3 15 10 -14 8 -15 15 -7
39 6 16 9 37 7 46 -2 10 -11 -6 -20 -35z"/>
<path d="M1912 465 c6 -28 -3 -32 -22 -10 -23 28 -28 15 -12 -35 9 -27 20 -50
25 -50 5 0 6 7 3 15 -20 49 -19 50 7 26 15 -14 29 -22 32 -19 6 5 -24 98 -32
98 -3 0 -3 -11 -1 -25z"/>
<path d="M692 421 c-26 -46 -27 -52 -6 -44 11 4 22 -1 30 -12 12 -17 14 -12
14 38 0 31 -4 57 -8 57 -5 0 -18 -17 -30 -39z m24 -28 c-11 -11 -19 6 -11 24
8 17 8 17 12 0 3 -10 2 -21 -1 -24z"/>
<path d="M1804 454 c-9 -4 -8 -17 2 -51 8 -26 15 -48 17 -49 6 -7 47 9 47 18
0 5 -8 7 -19 3 -24 -7 -36 21 -13 30 14 6 13 8 -7 16 -23 9 -24 10 -5 24 14
11 15 14 4 14 -8 0 -20 -3 -26 -5z"/>
<path d="M765 408 c-4 -18 -9 -41 -11 -50 -3 -10 -1 -18 5 -18 6 0 11 7 11 15
0 23 17 18 25 -7 6 -22 7 -21 14 8 4 17 11 36 15 43 10 16 -11 41 -34 41 -13
0 -20 -10 -25 -32z m45 -4 c0 -8 -7 -14 -15 -14 -15 0 -21 21 -9 33 10 9 24
-2 24 -19z"/>
<path d="M1724 426 c-3 -8 0 -33 6 -56 8 -31 15 -40 26 -36 9 3 20 6 26 6 13
0 3 66 -13 86 -15 18 -38 18 -45 0z m36 -21 c0 -8 -4 -15 -9 -15 -5 0 -11 7
-15 15 -3 9 0 15 9 15 8 0 15 -7 15 -15z m12 -40 c0 -5 -5 -11 -11 -13 -6 -2
-11 4 -11 13 0 9 5 15 11 13 6 -2 11 -8 11 -13z"/>
<path d="M1672 403 l-10 -28 -11 25 c-10 21 -10 17 -5 -25 6 -52 24 -87 24
-47 0 26 15 29 24 6 4 -9 9 -14 13 -11 3 4 -2 18 -11 32 -10 16 -14 34 -10 50
8 34 -2 32 -14 -2z"/>
<path d="M875 395 c-3 -14 -7 -36 -10 -50 -3 -14 -1 -25 4 -25 5 0 16 -3 25
-6 9 -3 16 -1 16 5 0 6 -7 11 -15 11 -8 0 -15 7 -15 15 0 9 9 15 23 15 20 1
21 2 5 14 -24 17 -23 26 3 26 11 0 17 5 14 10 -12 20 -45 10 -50 -15z"/>
<path d="M951 391 c-29 -54 1 -114 37 -76 16 16 16 17 -5 11 -26 -8 -33 1 -26
37 5 28 27 37 37 15 3 -7 5 -4 3 7 -3 27 -33 31 -46 6z"/>
<path d="M1566 402 c-9 -15 5 -102 17 -102 5 0 7 9 4 20 -6 25 8 26 22 3 15
-27 19 -13 12 37 -5 36 -10 46 -28 48 -11 2 -24 -1 -27 -6z m36 -27 c0 -5 -5
-11 -11 -13 -6 -2 -11 4 -11 13 0 9 5 15 11 13 6 -2 11 -8 11 -13z"/>
<path d="M1018 349 c-3 -54 5 -65 39 -56 16 4 15 6 -5 12 -21 7 -22 12 -16 51
4 28 2 44 -4 44 -5 0 -12 -23 -14 -51z"/>
<path d="M1492 387 c-15 -18 -4 -84 16 -92 28 -11 45 19 35 62 -9 40 -32 53
-51 30z m36 -46 c3 -24 0 -32 -10 -29 -7 3 -14 19 -16 37 -3 24 0 32 10 29 7
-3 14 -19 16 -37z"/>
<path d="M1088 340 c-1 -28 0 -50 5 -50 4 0 7 12 7 28 0 15 3 37 6 50 4 12 2
22 -4 22 -5 0 -12 -23 -14 -50z"/>
<path d="M1127 343 c-3 -26 -1 -52 4 -57 5 -6 9 -2 9 11 0 13 8 23 21 26 29 8
23 61 -7 65 -19 3 -22 -3 -27 -45z m43 12 c0 -8 -7 -15 -15 -15 -8 0 -15 7
-15 15 0 8 7 15 15 15 8 0 15 -7 15 -15z"/>
<path d="M1218 379 c-24 -13 -23 -36 2 -49 11 -6 20 -17 20 -25 0 -18 -17 -20
-23 -2 -2 6 -8 9 -12 5 -11 -11 4 -28 26 -28 30 0 36 30 11 51 -29 23 -29 42
0 33 20 -6 21 -5 9 10 -7 9 -14 16 -15 16 0 0 -9 -5 -18 -11z"/>
<path d="M1378 385 c-3 -4 -2 -23 4 -43 17 -67 19 -69 32 -37 12 29 13 29 20
8 13 -40 26 -25 25 30 -1 43 -3 47 -9 22 l-7 -30 -13 30 -13 30 -7 -30 c-7
-29 -12 -26 -22 13 -2 7 -6 10 -10 7z"/>
<path d="M1280 330 c0 -48 1 -50 28 -49 16 1 20 3 10 6 -10 2 -18 13 -18 24 0
11 7 19 18 20 13 0 12 2 -5 9 -13 5 -23 12 -23 15 0 3 10 10 23 15 21 8 21 9
-5 9 -27 1 -28 -1 -28 -49z"/>
</g>
</svg>
